<svg xmlns="http://www.w3.org/2000/svg" version="1.1" xmlns:xlink="http://www.w3.org/1999/xlink" xmlns:svgjs="http://svgjs.dev/svgjs" width="1000" height="1000" viewBox="0 0 1000 1000"><rect width="1000" height="1000" fill="#2b2b2b"></rect><g transform="matrix(0.7,0,0,0.7,150,218.95000000000005)"><svg viewBox="0 0 448 360" data-background-color="#2b2b2b" preserveAspectRatio="xMidYMid meet" height="803" width="1000" xmlns="http://www.w3.org/2000/svg" xmlns:xlink="http://www.w3.org/1999/xlink"><g id="tight-bounds" transform="matrix(1,0,0,1,0,0)"><svg viewBox="0 0 448 360" height="360" width="448"><g><svg></svg></g><g><svg viewBox="0 0 448 360" height="360" width="448"><g><path xmlns="http://www.w3.org/2000/svg" d="M193.855 44.683c1.378 0 2.494 1.116 2.495 2.494 0 1.378-1.116 2.494-2.495 2.495h-23.846l-17.167 17.167c-0.973 0.973-2.551 0.973-3.53 0-0.973-0.973-0.973-2.551 0-3.529l13.644-13.645h-40.378c-11.518 0-19.151 2.688-23.815 8.113-4.739 5.519-6.66 14.056-6.66 25.63 0 0.069 0 0.137-0.006 0.206l0.212 36.692 14.692-14.692c0.973-0.973 2.551-0.973 3.53 0 0.973 0.973 0.973 2.551 0 3.53l-18.178 18.178c0.206 35.832 0.193 71.358-0.013 107.19 25.486 25.2 50.617 50.312 75.811 75.791h25.38c1.378 0 2.494 1.116 2.495 2.495 0 1.378-1.116 2.494-2.495 2.494h-20.448l25.942 26.241 0.006-0.006c8.188 8.188 15.577 12.859 22.824 13.413 7.146 0.543 14.442-2.956 22.586-11.093l28.555-28.555h-20.722c-1.378 0-2.494-1.116-2.495-2.494 0-1.378 1.116-2.494 2.495-2.495h25.711l16.625-16.625c0.973-0.973 2.551-0.973 3.529 0 0.973 0.973 0.973 2.551 0 3.53l-13.101 13.102h40.377c11.518 0 19.151-2.688 23.815-8.113 4.739-5.519 6.66-14.056 6.66-25.63h0.013l-0.212-36.898-16.014 16.014c-0.973 0.973-2.551 0.973-3.53 0-0.973-0.973-0.973-2.551 0-3.53l19.5-19.5c-0.206-35.832-0.193-71.358 0.013-107.19-25.486-25.2-50.617-50.312-75.811-75.791h-26.147c-1.378 0-2.494-1.116-2.495-2.495 0-1.378 1.116-2.494 2.495-2.494h21.215l-25.824-26.123c-0.044-0.037-0.081-0.075-0.124-0.112-8.188-8.188-15.577-12.859-22.824-13.413-7.146-0.543-14.442 2.956-22.586 11.093l-28.555 28.555h18.858zM122.578 44.683h45.367l32.078-32.078c9.248-9.248 17.81-13.195 26.484-12.534 8.568 0.649 16.956 5.824 25.985 14.854 0.05 0.05 0.094 0.094 0.137 0.143l29.278 29.615h43.508c13.071 0 21.919 3.268 27.594 9.871 5.6 6.517 7.864 16.101 7.864 28.867 0 0.081-0.006 0.156-0.012 0.23l-0.225 39.742 28.43 28.112 0.006-0.006c9.03 9.03 14.206 17.411 14.854 25.985 0.661 8.674-3.293 17.236-12.534 26.484l-30.768 30.768 0.237 41.843h0.012c0 12.765-2.27 22.35-7.864 28.867-5.675 6.604-14.524 9.872-27.594 9.871h-45.366l-32.078 32.078c-9.248 9.248-17.81 13.195-26.484 12.534-8.568-0.649-16.956-5.824-25.985-14.854l0.006-0.006-29.421-29.758h-43.509c-13.071 0-21.919-3.268-27.594-9.872-5.6-6.517-7.864-16.101-7.863-28.866h0.012l0.231-39.972-28.293-27.969c-0.05-0.044-0.1-0.087-0.143-0.137-9.03-9.03-14.206-17.411-14.854-25.985-0.661-8.674 3.293-17.236 12.534-26.484l30.768-30.768-0.237-41.607c-0.006-0.075-0.012-0.156-0.012-0.23 0-12.765 2.27-22.35 7.864-28.867 5.675-6.604 14.524-9.872 27.594-9.871zM87.682 179.997l-0.274-47.724-27.276 27.276c-8.138 8.138-11.636 15.44-11.094 22.587 0.549 7.246 5.226 14.642 13.413 22.823 0.037 0.037 0.081 0.081 0.113 0.125l24.837 24.551 0.281-49.644zM92.303 241.483l-0.2 35.09h0.013c0 11.58 1.921 20.117 6.66 25.63 4.664 5.432 12.297 8.113 23.815 8.113h38.576l-33.55-33.936-35.308-34.903zM325.415 49.672h-38.575l33.549 33.936 35.308 34.902 0.2-34.884c-0.006-0.069-0.006-0.137-0.007-0.205 0-11.58-1.921-20.117-6.66-25.63-4.664-5.432-12.297-8.113-23.815-8.113zM360.599 130.352l-0.281 49.645 0.274 47.724 27.276-27.276c8.138-8.138 11.636-15.44 11.094-22.587-0.549-7.252-5.226-14.642-13.413-22.824l0.006-0.006-24.956-24.669z" fill="#2257bf" fill-rule="nonzero" stroke="none" stroke-width="1" stroke-linecap="butt" stroke-linejoin="miter" stroke-miterlimit="10" stroke-dasharray="" stroke-dashoffset="0" font-family="none" font-weight="none" font-size="none" text-anchor="none" style="mix-blend-mode: normal" data-fill-palette-color="tertiary"></path></g><g transform="matrix(1,0,0,1,112,135.30577854050472)"><svg viewBox="0 0 224 89.38844291899055" height="89.38844291899055" width="224"><g><svg viewBox="0 0 224 89.38844291899055" height="89.38844291899055" width="224"><g><svg viewBox="0 0 224.00000000000003 89.38844291899056" height="89.38844291899055" width="224"><g transform="matrix(1,0,0,1,0,53.765981900083126)"><svg viewBox="0 0 224.00000000000003 35.622461018907444" height="35.622461018907444" width="224.00000000000003"><g><svg viewBox="0 0 224.00000000000003 35.622461018907444" height="35.622461018907444" width="224.00000000000003"><g><svg viewBox="0 0 224.00000000000003 19.213053304668982" height="19.213053304668982" width="224.00000000000003"><g transform="matrix(1,0,0,1,0,0)"><svg width="224.00000000000003" viewBox="2.200000047683716 -37.5 442.8499755859375 37.9900016784668" height="19.213053304668982" data-palette-color="#2257bf"><path d="M24.88 0L18.82 0Q18.43-0.76 18.14-2.47L18.14-2.47Q15.31 0.49 11.21 0.49L11.21 0.49Q7.23 0.49 4.71-1.78 2.2-4.05 2.2-7.4L2.2-7.4Q2.2-11.62 5.33-13.88 8.47-16.14 14.31-16.14L14.31-16.14 17.94-16.14 17.94-17.87Q17.94-19.92 16.8-21.15 15.65-22.39 13.31-22.39L13.31-22.39Q11.28-22.39 9.99-21.37 8.69-20.36 8.69-18.8L8.69-18.8 2.76-18.8Q2.76-20.97 4.2-22.86 5.64-24.76 8.12-25.83 10.6-26.9 13.65-26.9L13.65-26.9Q18.29-26.9 21.04-24.57 23.8-22.24 23.88-18.02L23.88-18.02 23.88-6.1Q23.88-2.54 24.88-0.42L24.88-0.42 24.88 0ZM12.3-4.27L12.3-4.27Q14.06-4.27 15.61-5.13 17.16-5.98 17.94-7.42L17.94-7.42 17.94-12.4 14.75-12.4Q11.45-12.4 9.79-11.25 8.13-10.11 8.13-8.01L8.13-8.01Q8.13-6.3 9.27-5.29 10.4-4.27 12.3-4.27ZM43.94-26.56L43.92-21Q42.75-21.19 41.5-21.19L41.5-21.19Q37.42-21.19 36.01-18.07L36.01-18.07 36.01 0 30.08 0 30.08-26.42 35.74-26.42 35.89-23.46Q38.03-26.9 41.84-26.9L41.84-26.9Q43.11-26.9 43.94-26.56L43.94-26.56ZM47.65-26.42L53.24-26.42 53.41-23.66Q56.2-26.9 61.03-26.9L61.03-26.9Q66.33-26.9 68.28-22.85L68.28-22.85Q71.16-26.9 76.39-26.9L76.39-26.9Q80.76-26.9 82.89-24.49 85.03-22.07 85.08-17.36L85.08-17.36 85.08 0 79.15 0 79.15-17.19Q79.15-19.7 78.05-20.87 76.95-22.05 74.41-22.05L74.41-22.05Q72.38-22.05 71.1-20.96 69.82-19.87 69.31-18.12L69.31-18.12 69.33 0 63.4 0 63.4-17.38Q63.28-22.05 58.64-22.05L58.64-22.05Q55.07-22.05 53.58-19.14L53.58-19.14 53.58 0 47.65 0 47.65-26.42ZM97.48-26.42L97.48 0 91.55 0 91.55-26.42 97.48-26.42ZM91.18-33.28L91.18-33.28Q91.18-34.64 92.05-35.55 92.91-36.45 94.52-36.45 96.14-36.45 97.01-35.55 97.89-34.64 97.89-33.28L97.89-33.28Q97.89-31.93 97.01-31.04 96.14-30.15 94.52-30.15 92.91-30.15 92.05-31.04 91.18-31.93 91.18-33.28ZM103.85-26.42L109.44-26.42 109.61-23.36Q112.54-26.9 117.3-26.9L117.3-26.9Q125.55-26.9 125.7-17.46L125.7-17.46 125.7 0 119.77 0 119.77-17.11Q119.77-19.63 118.68-20.84 117.59-22.05 115.13-22.05L115.13-22.05Q111.54-22.05 109.78-18.8L109.78-18.8 109.78 0 103.85 0 103.85-26.42ZM149.45-26.42L154.94-8.18 159.14-26.42 164.93-26.42 157.73 0 152.84 0 147.18-18.14 141.61 0 136.73 0 129.5-26.42 135.29-26.42 139.56-8.37 144.98-26.42 149.45-26.42ZM180.53 0.49L180.53 0.49Q174.89 0.49 171.38-3.06 167.88-6.62 167.88-12.52L167.88-12.52 167.88-13.26Q167.88-17.21 169.41-20.32 170.93-23.44 173.69-25.17 176.45-26.9 179.84-26.9L179.84-26.9Q185.24-26.9 188.18-23.46 191.12-20.02 191.12-13.72L191.12-13.72 191.12-11.33 173.86-11.33Q174.13-8.06 176.05-6.15 177.96-4.25 180.87-4.25L180.87-4.25Q184.95-4.25 187.51-7.54L187.51-7.54 190.71-4.49Q189.12-2.12 186.47-0.82 183.82 0.49 180.53 0.49ZM179.82-22.14L179.82-22.14Q177.38-22.14 175.88-20.43 174.37-18.73 173.96-15.67L173.96-15.67 185.26-15.67 185.26-16.11Q185.07-19.09 183.68-20.62 182.28-22.14 179.82-22.14ZM218.9-13.28L218.9-12.94Q218.9-6.79 216.16-3.15 213.41 0.49 208.6 0.49L208.6 0.49Q203.96 0.49 201.37-2.86L201.37-2.86 201.08 0 195.71 0 195.71-37.5 201.64-37.5 201.64-23.88Q204.21-26.9 208.55-26.9L208.55-26.9Q213.39-26.9 216.14-23.32 218.9-19.73 218.9-13.28L218.9-13.28ZM212.97-12.7L212.97-13.45Q212.97-17.75 211.46-19.9 209.94-22.05 207.06-22.05L207.06-22.05Q203.21-22.05 201.64-18.68L201.64-18.68 201.64-7.79Q203.23-4.35 207.11-4.35L207.11-4.35Q209.89-4.35 211.41-6.42 212.92-8.5 212.97-12.7L212.97-12.7ZM222.76-13.4L222.76-13.4Q222.76-19.51 225.59-23.21 228.42-26.9 233.18-26.9L233.18-26.9Q237.38-26.9 239.97-23.97L239.97-23.97 239.97-37.5 245.9-37.5 245.9 0 240.53 0 240.24-2.73Q237.58 0.49 233.13 0.49L233.13 0.49Q228.5 0.49 225.63-3.25 222.76-6.98 222.76-13.4ZM228.69-12.89L228.69-12.89Q228.69-8.86 230.24-6.6 231.79-4.35 234.65-4.35L234.65-4.35Q238.29-4.35 239.97-7.59L239.97-7.59 239.97-18.87Q238.33-22.05 234.7-22.05L234.7-22.05Q231.82-22.05 230.25-19.76 228.69-17.48 228.69-12.89ZM263.72 0.49L263.72 0.49Q258.08 0.49 254.58-3.06 251.08-6.62 251.08-12.52L251.08-12.52 251.08-13.26Q251.08-17.21 252.6-20.32 254.13-23.44 256.89-25.17 259.65-26.9 263.04-26.9L263.04-26.9Q268.43-26.9 271.38-23.46 274.32-20.02 274.32-13.72L274.32-13.72 274.32-11.33 257.06-11.33Q257.33-8.06 259.24-6.15 261.16-4.25 264.06-4.25L264.06-4.25Q268.14-4.25 270.71-7.54L270.71-7.54 273.9-4.49Q272.32-2.12 269.67-0.82 267.02 0.49 263.72 0.49ZM263.01-22.14L263.01-22.14Q260.57-22.14 259.07-20.43 257.57-18.73 257.16-15.67L257.16-15.67 268.46-15.67 268.46-16.11Q268.26-19.09 266.87-20.62 265.48-22.14 263.01-22.14ZM282.25-26.42L287.91-7.52 293.51-26.42 299.63-26.42 290.48 0 285.33 0 276.1-26.42 282.25-26.42ZM302.95-6.25L302.95-6.25Q304.61-6.25 305.51-5.31 306.42-4.37 306.42-2.95L306.42-2.95Q306.42-1.56 305.51-0.65 304.61 0.27 302.95 0.27L302.95 0.27Q301.36 0.27 300.44-0.63 299.51-1.54 299.51-2.95 299.51-4.37 300.41-5.31 301.32-6.25 302.95-6.25ZM312.1-13.16L312.1-13.45Q312.1-17.33 313.64-20.45 315.18-23.56 317.96-25.23 320.75-26.9 324.36-26.9L324.36-26.9Q329.71-26.9 333.04-23.46 336.37-20.02 336.64-14.33L336.64-14.33 336.66-12.94Q336.66-9.03 335.16-5.96 333.66-2.88 330.87-1.2 328.07 0.49 324.41 0.49L324.41 0.49Q318.82 0.49 315.46-3.23 312.1-6.96 312.1-13.16L312.1-13.16ZM318.04-12.94L318.04-12.94Q318.04-8.86 319.72-6.56 321.41-4.25 324.41-4.25 327.41-4.25 329.08-6.59 330.76-8.94 330.76-13.45L330.76-13.45Q330.76-17.46 329.03-19.8 327.31-22.14 324.36-22.14L324.36-22.14Q321.45-22.14 319.75-19.84 318.04-17.53 318.04-12.94ZM341.59-26.42L347.18-26.42 347.36-23.36Q350.28-26.9 355.05-26.9L355.05-26.9Q363.3-26.9 363.44-17.46L363.44-17.46 363.44 0 357.51 0 357.51-17.11Q357.51-19.63 356.43-20.84 355.34-22.05 352.87-22.05L352.87-22.05Q349.28-22.05 347.53-18.8L347.53-18.8 347.53 0 341.59 0 341.59-26.42ZM375.8-37.5L375.8 0 369.86 0 369.86-37.5 375.8-37.5ZM388.56-26.42L388.56 0 382.63 0 382.63-26.42 388.56-26.42ZM382.26-33.28L382.26-33.28Q382.26-34.64 383.13-35.55 384-36.45 385.61-36.45 387.22-36.45 388.1-35.55 388.98-34.64 388.98-33.28L388.98-33.28Q388.98-31.93 388.1-31.04 387.22-30.15 385.61-30.15 384-30.15 383.13-31.04 382.26-31.93 382.26-33.28ZM394.93-26.42L400.52-26.42 400.69-23.36Q403.62-26.9 408.38-26.9L408.38-26.9Q416.63-26.9 416.78-17.46L416.78-17.46 416.78 0 410.85 0 410.85-17.11Q410.85-19.63 409.76-20.84 408.68-22.05 406.21-22.05L406.21-22.05Q402.62-22.05 400.86-18.8L400.86-18.8 400.86 0 394.93 0 394.93-26.42ZM434.45 0.49L434.45 0.49Q428.81 0.49 425.31-3.06 421.81-6.62 421.81-12.52L421.81-12.52 421.81-13.26Q421.81-17.21 423.33-20.32 424.86-23.44 427.62-25.17 430.38-26.9 433.77-26.9L433.77-26.9Q439.17-26.9 442.11-23.46 445.05-20.02 445.05-13.72L445.05-13.72 445.05-11.33 427.79-11.33Q428.06-8.06 429.97-6.15 431.89-4.25 434.8-4.25L434.8-4.25Q438.87-4.25 441.44-7.54L441.44-7.54 444.64-4.49Q443.05-2.12 440.4-0.82 437.75 0.49 434.45 0.49ZM433.75-22.14L433.75-22.14Q431.31-22.14 429.8-20.43 428.3-18.73 427.89-15.67L427.89-15.67 439.19-15.67 439.19-16.11Q439-19.09 437.6-20.62 436.21-22.14 433.75-22.14Z" opacity="1" transform="matrix(1,0,0,1,0,0)" fill="#2257bf" class="undefined-text-0" data-fill-palette-color="primary" id="text-0"></path></svg></g></svg></g><g transform="matrix(1,0,0,1,0,23.748794076622016)"><svg viewBox="0 0 224.00000000000003 11.87366694228543" height="11.87366694228543" width="224.00000000000003"><g transform="matrix(1,0,0,1,0,0)"><svg width="224.00000000000003" viewBox="3.950000047683716 -38 950.8099975585938 50.400001525878906" height="11.87366694228543" data-palette-color="#2257bf"><path d="M9.35-32.55L9.35-18.05 15.8-18.05Q20-18.05 22.15-19.95 24.3-21.85 24.3-25.28 24.3-28.7 22.15-30.63 20-32.55 15.8-32.55L15.8-32.55 9.35-32.55ZM26.9 0.4L26.9 0.4Q25.5 0.4 24.55-0.33 23.6-1.05 22.15-3.1L22.15-3.1 13.95-14.75 9.4-14.75 9.4-3.1Q9.4-1.65 10.65-1.15L10.65-1.15Q9.6 0.45 7.95 0.45L7.95 0.45Q5.2 0.45 5.2-3.05L5.2-3.05 5.2-32.05Q5.2-33.5 3.95-34.05L3.95-34.05Q5.15-35.85 7.95-35.85L7.95-35.85 15.85-35.85Q21.7-35.85 25.23-33.05 28.75-30.25 28.75-25.65 28.75-21.05 26.13-18.38 23.5-15.7 18.95-15L18.95-15 27.2-4Q28.45-2.3 30.3-2.15L30.3-2.15Q29.15 0.4 26.9 0.4ZM43.36-14.65L52.71-15.4Q54.76-15.55 54.76-17.78 54.76-20 53.49-21.48 52.21-22.95 49.91-22.95 47.61-22.95 45.71-20.75 43.81-18.55 43.36-14.65L43.36-14.65ZM43.26-12.5Q43.26-7.6 45.39-5.25 47.51-2.9 51.46-2.9 55.41-2.9 58.01-5.5L58.01-5.5Q58.76-5.1 58.76-4.15L58.76-4.15Q58.76-2.5 56.36-1.03 53.96 0.45 50.66 0.45L50.66 0.45Q45.51 0.45 42.21-2.8 38.91-6.05 38.91-11.93 38.91-17.8 42.49-21.83 46.06-25.85 50.71-25.85L50.71-25.85Q54.41-25.85 56.74-23.3 59.06-20.75 59.06-17.5L59.06-17.5Q59.06-15.15 57.79-14.03 56.51-12.9 53.66-12.8L53.66-12.8 43.26-12.5ZM86.9-18.98Q86.08-18.3 84.93-18.3 83.78-18.3 82.98-18.9L82.98-18.9Q83.28-19.4 83.28-20.35 83.28-21.3 82.13-22.2 80.98-23.1 78.68-23.1 76.38-23.1 75.03-22.08 73.68-21.05 73.68-19.65 73.68-18.25 75.18-17.13 76.68-16 78.78-15.08 80.88-14.15 83-13.1 85.13-12.05 86.63-10.43 88.13-8.8 88.13-6.8L88.13-6.8Q88.13-3.85 85.33-1.7 82.53 0.45 78.23 0.45 73.93 0.45 71.23-1.2 68.53-2.85 68.53-5.45L68.53-5.45Q68.53-7 69.4-7.88 70.28-8.75 71.5-8.75 72.73-8.75 73.43-7.9L73.43-7.9Q72.73-6.95 72.73-5.6 72.73-4.25 74.1-3.28 75.48-2.3 78.1-2.3 80.73-2.3 82.3-3.43 83.88-4.55 83.88-6.18 83.88-7.8 82.4-9 80.93-10.2 78.83-11.08 76.73-11.95 74.6-12.93 72.48-13.9 71-15.4 69.53-16.9 69.53-18.8L69.53-18.8Q69.53-21.8 72.13-23.83 74.73-25.85 78.5-25.85 82.28-25.85 84.98-24.48 87.68-23.1 87.68-20.85L87.68-20.85Q87.73-19.65 86.9-18.98ZM111.04-2.95L111.04-2.95Q114.09-2.95 116.22-5.58 118.34-8.2 118.34-12.7 118.34-17.2 116.22-19.8 114.09-22.4 111.04-22.4L111.04-22.4Q106.74-22.4 104.54-18.3L104.54-18.3 104.54-6.4Q105.79-4.5 107.34-3.73 108.89-2.95 111.04-2.95ZM104.54-22.35L104.54-22.35 104.54-22.3Q107.14-25.85 111.67-25.85 116.19-25.85 119.42-22.43 122.64-19 122.64-12.75 122.64-6.5 119.27-3.05 115.89 0.4 111.52 0.4 107.14 0.4 104.54-2.5L104.54-2.5 104.54 8.85Q104.54 10.35 105.79 10.8L105.79 10.8Q104.74 12.4 103.19 12.4L103.19 12.4Q100.39 12.4 100.39 8.85L100.39 8.85 100.39-22.25Q100.39-23.7 99.14-24.25L99.14-24.25Q100.09-25.85 101.74-25.85L101.74-25.85Q104.54-25.85 104.54-22.35ZM149.48-20.38Q147.21-23 143.76-23 140.31-23 138.41-20.63 136.51-18.25 136.51-13.65L136.51-13.65Q136.51-7.7 138.83-5.03 141.16-2.35 144.61-2.35 148.06-2.35 149.91-4.75 151.76-7.15 151.76-11.75L151.76-11.75Q151.76-17.75 149.48-20.38ZM135.73-22.4Q139.21-25.85 144.16-25.85 149.11-25.85 152.58-22.38 156.06-18.9 156.06-12.68 156.06-6.45 152.58-3 149.11 0.45 144.16 0.45 139.21 0.45 135.73-3 132.26-6.45 132.26-12.7 132.26-18.95 135.73-22.4ZM188.67-17.25L188.67-17.25 188.67-3.1Q188.67-1.7 189.97-1.15L189.97-1.15Q188.92 0.45 187.32 0.45L187.32 0.45Q184.57 0.45 184.57-3.05L184.57-3.05 184.57-16.95Q184.57-22.2 179.97-22.2L179.97-22.2Q177.47-22.2 175.22-20.2 172.97-18.2 172.12-14.85L172.12-14.85 172.12-3.1Q172.12-1.65 173.37-1.15L173.37-1.15Q172.32 0.45 170.77 0.45L170.77 0.45Q167.97 0.45 167.97-3.05L167.97-3.05 167.97-22.25Q167.97-23.7 166.72-24.25L166.72-24.25Q167.67-25.85 169.32-25.85L169.32-25.85Q172.12-25.85 172.12-22.35L172.12-22.35 172.12-19.75Q173.42-22.45 175.82-24.15 178.22-25.85 181.45-25.85 184.67-25.85 186.67-23.68 188.67-21.5 188.67-17.25ZM219.11-18.98Q218.29-18.3 217.14-18.3 215.99-18.3 215.19-18.9L215.19-18.9Q215.49-19.4 215.49-20.35 215.49-21.3 214.34-22.2 213.19-23.1 210.89-23.1 208.59-23.1 207.24-22.08 205.89-21.05 205.89-19.65 205.89-18.25 207.39-17.13 208.89-16 210.99-15.08 213.09-14.15 215.21-13.1 217.34-12.05 218.84-10.43 220.34-8.8 220.34-6.8L220.34-6.8Q220.34-3.85 217.54-1.7 214.74 0.45 210.44 0.45 206.14 0.45 203.44-1.2 200.74-2.85 200.74-5.45L200.74-5.45Q200.74-7 201.61-7.88 202.49-8.75 203.71-8.75 204.94-8.75 205.64-7.9L205.64-7.9Q204.94-6.95 204.94-5.6 204.94-4.25 206.31-3.28 207.69-2.3 210.31-2.3 212.94-2.3 214.51-3.43 216.09-4.55 216.09-6.18 216.09-7.8 214.61-9 213.14-10.2 211.04-11.08 208.94-11.95 206.81-12.93 204.69-13.9 203.21-15.4 201.74-16.9 201.74-18.8L201.74-18.8Q201.74-21.8 204.34-23.83 206.94-25.85 210.71-25.85 214.49-25.85 217.19-24.48 219.89-23.1 219.89-20.85L219.89-20.85Q219.94-19.65 219.11-18.98ZM234.83-36.5Q236.1-36.5 236.93-35.77 237.75-35.05 237.75-33.77 237.75-32.5 236.68-31.48 235.6-30.45 234.25-30.45 232.9-30.45 232.05-31.25 231.2-32.05 231.2-33.35 231.2-34.65 232.38-35.58 233.55-36.5 234.83-36.5ZM236.75-22.35L236.75-22.35 236.75-3.1Q236.75-1.65 238-1.15L238-1.15Q236.95 0.45 235.4 0.45L235.4 0.45Q232.6 0.45 232.6-3.05L232.6-3.05 232.6-22.25Q232.6-23.7 231.35-24.25L231.35-24.25Q232.3-25.85 233.95-25.85L233.95-25.85Q236.75-25.85 236.75-22.35ZM259.16-2.5L266.16-20.9Q266.61-22.1 266.61-23.15 266.61-24.2 265.91-24.95L265.91-24.95Q267.06-25.85 268.14-25.85 269.21-25.85 269.91-25.15 270.61-24.45 270.61-23.38 270.61-22.3 270.01-20.9L270.01-20.9 262.86-3.1Q262.11-1.15 261.31-0.38 260.51 0.4 259.09 0.4 257.66 0.4 256.81-0.4 255.96-1.2 255.31-3.1L255.31-3.1 248.96-21.65Q248.31-23.4 246.91-23.5L246.91-23.5Q246.96-24.55 247.76-25.2 248.56-25.85 249.61-25.85L249.61-25.85Q252.11-25.85 253.16-22.45L253.16-22.45 259.16-2.5ZM283.53-14.65L292.88-15.4Q294.93-15.55 294.93-17.78 294.93-20 293.65-21.48 292.38-22.95 290.08-22.95 287.78-22.95 285.88-20.75 283.98-18.55 283.53-14.65L283.53-14.65ZM283.43-12.5Q283.43-7.6 285.55-5.25 287.68-2.9 291.63-2.9 295.58-2.9 298.18-5.5L298.18-5.5Q298.93-5.1 298.93-4.15L298.93-4.15Q298.93-2.5 296.53-1.03 294.13 0.45 290.83 0.45L290.83 0.45Q285.68 0.45 282.38-2.8 279.08-6.05 279.08-11.93 279.08-17.8 282.65-21.83 286.23-25.85 290.88-25.85L290.88-25.85Q294.58-25.85 296.9-23.3 299.23-20.75 299.23-17.5L299.23-17.5Q299.23-15.15 297.95-14.03 296.68-12.9 293.83-12.8L293.83-12.8 283.43-12.5ZM340.91-29.05L334.46-11.5 346.51-11.5 340.91-29.05ZM355.51-0.85L355.51-0.85Q354.71 0.45 353.18 0.45 351.66 0.45 350.91-0.2 350.16-0.85 349.61-2.55L349.61-2.55 347.56-8.45 333.31-8.45 331.21-3Q329.91 0.45 327.91 0.45L327.91 0.45Q326.21 0.45 325.56-1.25L325.56-1.25Q326.71-1.7 327.36-3.6L327.36-3.6 339.11-33.25Q338.56-34.6 337.86-35.25L337.86-35.25Q339.01-36.25 340.23-36.25 341.46-36.25 342.13-35.5 342.81-34.75 343.41-33.1L343.41-33.1 353.61-3.4Q354.31-1.35 355.51-0.85ZM386.62-17.25L386.62-17.25 386.62-3.1Q386.62-1.7 387.92-1.15L387.92-1.15Q386.87 0.45 385.27 0.45L385.27 0.45Q382.52 0.45 382.52-3.05L382.52-3.05 382.52-16.95Q382.52-22.2 377.92-22.2L377.92-22.2Q375.42-22.2 373.17-20.2 370.92-18.2 370.07-14.85L370.07-14.85 370.07-3.1Q370.07-1.65 371.32-1.15L371.32-1.15Q370.27 0.45 368.72 0.45L368.72 0.45Q365.92 0.45 365.92-3.05L365.92-3.05 365.92-22.25Q365.92-23.7 364.67-24.25L364.67-24.25Q365.62-25.85 367.27-25.85L367.27-25.85Q370.07-25.85 370.07-22.35L370.07-22.35 370.07-19.75Q371.37-22.45 373.77-24.15 376.17-25.85 379.4-25.85 382.62-25.85 384.62-23.68 386.62-21.5 386.62-17.25ZM415.99-8.5L415.99-20.65Q413.74-22.75 410.51-22.75 407.29-22.75 405.01-19.98 402.74-17.2 402.74-12.4 402.74-7.6 404.71-5.2 406.69-2.8 409.69-2.8L409.69-2.8Q414.74-2.8 415.99-8.5L415.99-8.5ZM420.19-34.55L420.19-34.55 420.19-3.1Q420.19-1.65 421.44-1.15L421.44-1.15Q420.39 0.45 418.79 0.45L418.79 0.45Q415.99 0.45 415.99-3.05L415.99-3.05 415.99-3.85Q413.74 0.45 408.79 0.45L408.79 0.45Q404.59 0.45 401.44-2.93 398.29-6.3 398.29-12.28 398.29-18.25 401.69-22.05 405.09-25.85 409.89-25.85L409.89-25.85Q413.29-25.85 415.99-24.15L415.99-24.15 415.99-34.45Q415.99-35.95 414.74-36.45L414.74-36.45Q415.69-38 417.34-38L417.34-38Q420.19-38 420.19-34.55ZM464.47-29.05L458.02-11.5 470.07-11.5 464.47-29.05ZM479.07-0.85L479.07-0.85Q478.27 0.45 476.74 0.45 475.22 0.45 474.47-0.2 473.72-0.85 473.17-2.55L473.17-2.55 471.12-8.45 456.87-8.45 454.77-3Q453.47 0.45 451.47 0.45L451.47 0.45Q449.77 0.45 449.12-1.25L449.12-1.25Q450.27-1.7 450.92-3.6L450.92-3.6 462.67-33.25Q462.12-34.6 461.42-35.25L461.42-35.25Q462.57-36.25 463.79-36.25 465.02-36.25 465.69-35.5 466.37-34.75 466.97-33.1L466.97-33.1 477.17-3.4Q477.87-1.35 479.07-0.85ZM494.38-22.2L493.68-22.2 493.68-6.35Q493.68-4.5 494.4-3.7 495.13-2.9 496.78-2.9L496.78-2.9Q499.88-2.9 502.63-5.55L502.63-5.55Q503.48-5.1 503.48-4.1L503.48-4.1Q503.48-2.4 501.28-0.98 499.08 0.45 495.88 0.45L495.88 0.45Q489.48 0.45 489.48-6.2L489.48-6.2 489.48-22.2Q485.43-22.35 485.43-24.15L485.43-24.15Q485.43-25.1 486.03-25.6L486.03-25.6Q487.78-25.35 488.73-25.35L488.73-25.35 489.48-25.35 489.48-29.4Q489.48-30.8 488.23-31.4L488.23-31.4Q489.23-32.95 490.83-32.95L490.83-32.95Q493.68-32.95 493.68-29.45L493.68-29.45 493.68-25.35 502.08-25.35Q502.28-25 502.28-24.5L502.28-24.5Q502.28-22.2 494.38-22.2L494.38-22.2ZM519.19-22.2L518.49-22.2 518.49-6.35Q518.49-4.5 519.22-3.7 519.94-2.9 521.59-2.9L521.59-2.9Q524.69-2.9 527.44-5.55L527.44-5.55Q528.29-5.1 528.29-4.1L528.29-4.1Q528.29-2.4 526.09-0.98 523.89 0.45 520.69 0.45L520.69 0.45Q514.29 0.45 514.29-6.2L514.29-6.2 514.29-22.2Q510.24-22.35 510.24-24.15L510.24-24.15Q510.24-25.1 510.84-25.6L510.84-25.6Q512.59-25.35 513.54-25.35L513.54-25.35 514.29-25.35 514.29-29.4Q514.29-30.8 513.04-31.4L513.04-31.4Q514.04-32.95 515.64-32.95L515.64-32.95Q518.49-32.95 518.49-29.45L518.49-29.45 518.49-25.35 526.89-25.35Q527.09-25 527.09-24.5L527.09-24.5Q527.09-22.2 519.19-22.2L519.19-22.2ZM543.26-22.35L543.26-22.35 543.26-20.5Q545.36-25.85 550.21-25.85L550.21-25.85Q552.56-25.85 553.86-24.65 555.16-23.45 555.16-21.88 555.16-20.3 554.36-19.48 553.56-18.65 552.71-18.65 551.86-18.65 551.16-18.85L551.16-18.85Q551.26-19.35 551.26-20.15L551.26-20.15Q551.26-22.65 548.76-22.65L548.76-22.65Q547.11-22.65 545.51-21 543.91-19.35 543.26-15.95L543.26-15.95 543.26-3.1Q543.26-1.65 544.51-1.15L544.51-1.15Q543.46 0.45 541.91 0.45L541.91 0.45Q539.11 0.45 539.11-3.05L539.11-3.05 539.11-22.25Q539.11-23.7 537.86-24.25L537.86-24.25Q538.81-25.85 540.46-25.85L540.46-25.85Q543.26-25.85 543.26-22.35ZM567.67-6.4L567.67-6.4Q567.67-2.8 571.6-2.8 575.52-2.8 578.07-6.25L578.07-6.25 578.07-12.2Q572.77-11.9 570.22-10.33 567.67-8.75 567.67-6.4ZM582.22-17.8L582.22-17.8 582.22-4.5Q582.22-1.85 584.67-1.5L584.67-1.5Q583.72 0.45 581.52 0.45L581.52 0.45Q578.37 0.45 578.07-3.6L578.07-3.6Q575.17 0.45 570.27 0.45L570.27 0.45Q567.17 0.45 565.17-1.25 563.17-2.95 563.17-5.95L563.17-5.95Q563.17-9.65 566.9-11.93 570.62-14.2 578.07-14.4L578.07-14.4 578.07-17.4Q578.07-20.5 576.97-21.98 575.87-23.45 573.5-23.45 571.12-23.45 569.92-22.48 568.72-21.5 568.72-20.28 568.72-19.05 569.42-18.3L569.42-18.3Q568.37-17.5 567.1-17.5 565.82-17.5 565.02-18.2 564.22-18.9 564.22-20.2L564.22-20.2Q564.22-22.55 566.92-24.2 569.62-25.85 573.57-25.85 577.52-25.85 579.87-23.73 582.22-21.6 582.22-17.8ZM613.94-21.05L613.94-21.05Q613.94-19.85 613.24-19.15 612.54-18.45 611.54-18.45 610.54-18.45 609.89-18.85L609.89-18.85Q610.04-19.4 610.04-19.95L610.04-19.95Q610.04-23 606.29-23L606.29-23Q603.24-23 600.84-20.2 598.44-17.4 598.44-12.63 598.44-7.85 600.66-5.45 602.89-3.05 606.14-3.05L606.14-3.05Q610.29-3.05 613.04-5.7L613.04-5.7Q613.69-5.15 613.69-4.25L613.69-4.25Q613.69-2.65 611.19-1.1 608.69 0.45 605.49 0.45L605.49 0.45Q600.84 0.45 597.54-2.75 594.24-5.95 594.24-11.88 594.24-17.8 597.96-21.83 601.69-25.85 607.04-25.85L607.04-25.85Q610.19-25.85 612.06-24.45 613.94-23.05 613.94-21.05ZM630.7-22.2L630-22.2 630-6.35Q630-4.5 630.73-3.7 631.45-2.9 633.1-2.9L633.1-2.9Q636.2-2.9 638.95-5.55L638.95-5.55Q639.8-5.1 639.8-4.1L639.8-4.1Q639.8-2.4 637.6-0.98 635.4 0.45 632.2 0.45L632.2 0.45Q625.8 0.45 625.8-6.2L625.8-6.2 625.8-22.2Q621.75-22.35 621.75-24.15L621.75-24.15Q621.75-25.1 622.35-25.6L622.35-25.6Q624.1-25.35 625.05-25.35L625.05-25.35 625.8-25.35 625.8-29.4Q625.8-30.8 624.55-31.4L624.55-31.4Q625.55-32.95 627.15-32.95L627.15-32.95Q630-32.95 630-29.45L630-29.45 630-25.35 638.4-25.35Q638.6-25 638.6-24.5L638.6-24.5Q638.6-22.2 630.7-22.2L630.7-22.2ZM652.84-36.5Q654.12-36.5 654.94-35.77 655.77-35.05 655.77-33.77 655.77-32.5 654.69-31.48 653.62-30.45 652.27-30.45 650.92-30.45 650.07-31.25 649.22-32.05 649.22-33.35 649.22-34.65 650.39-35.58 651.57-36.5 652.84-36.5ZM654.77-22.35L654.77-22.35 654.77-3.1Q654.77-1.65 656.02-1.15L656.02-1.15Q654.97 0.45 653.42 0.45L653.42 0.45Q650.62 0.45 650.62-3.05L650.62-3.05 650.62-22.25Q650.62-23.7 649.37-24.25L649.37-24.25Q650.32-25.85 651.97-25.85L651.97-25.85Q654.77-25.85 654.77-22.35ZM677.18-2.5L684.18-20.9Q684.63-22.1 684.63-23.15 684.63-24.2 683.93-24.95L683.93-24.95Q685.08-25.85 686.16-25.85 687.23-25.85 687.93-25.15 688.63-24.45 688.63-23.38 688.63-22.3 688.03-20.9L688.03-20.9 680.88-3.1Q680.13-1.15 679.33-0.38 678.53 0.4 677.11 0.4 675.68 0.4 674.83-0.4 673.98-1.2 673.33-3.1L673.33-3.1 666.98-21.65Q666.33-23.4 664.93-23.5L664.93-23.5Q664.98-24.55 665.78-25.2 666.58-25.85 667.63-25.85L667.63-25.85Q670.13-25.85 671.18-22.45L671.18-22.45 677.18-2.5ZM701.54-14.65L710.89-15.4Q712.94-15.55 712.94-17.78 712.94-20 711.67-21.48 710.39-22.95 708.09-22.95 705.79-22.95 703.89-20.75 701.99-18.55 701.54-14.65L701.54-14.65ZM701.44-12.5Q701.44-7.6 703.57-5.25 705.69-2.9 709.64-2.9 713.59-2.9 716.19-5.5L716.19-5.5Q716.94-5.1 716.94-4.15L716.94-4.15Q716.94-2.5 714.54-1.03 712.14 0.45 708.84 0.45L708.84 0.45Q703.69 0.45 700.39-2.8 697.09-6.05 697.09-11.93 697.09-17.8 700.67-21.83 704.24-25.85 708.89-25.85L708.89-25.85Q712.59-25.85 714.92-23.3 717.24-20.75 717.24-17.5L717.24-17.5Q717.24-15.15 715.97-14.03 714.69-12.9 711.84-12.8L711.84-12.8 701.44-12.5ZM785.92-33L785.92-33Q785.92-34.55 784.87-35.25L784.87-35.25Q785.87-36.25 787.25-36.25 788.62-36.25 789.3-35.5 789.97-34.75 789.97-33.68 789.97-32.6 789.67-31.55L789.67-31.55 781.77-2.6Q780.92 0.4 778.35 0.4 775.77 0.4 775.07-2.6L775.07-2.6 767.62-30.35 760.22-2.6Q759.47 0.4 756.77 0.4L756.77 0.4Q755.42 0.4 754.67-0.25 753.92-0.9 753.47-2.6L753.47-2.6 745.52-31.7Q744.97-33.75 743.57-34.35L743.57-34.35Q744.47-36.25 746.52-36.25L746.52-36.25Q747.67-36.25 748.45-35.45 749.22-34.65 749.67-32.6L749.67-32.6 756.97-4 764.77-33.7Q765.47-36.25 767.95-36.25 770.42-36.25 771.07-33.7L771.07-33.7 778.67-3.95 785.72-31.5Q785.92-32.35 785.92-33ZM802.99-14.65L812.34-15.4Q814.39-15.55 814.39-17.78 814.39-20 813.11-21.48 811.84-22.95 809.54-22.95 807.24-22.95 805.34-20.75 803.44-18.55 802.99-14.65L802.99-14.65ZM802.89-12.5Q802.89-7.6 805.01-5.25 807.14-2.9 811.09-2.9 815.04-2.9 817.64-5.5L817.64-5.5Q818.39-5.1 818.39-4.15L818.39-4.15Q818.39-2.5 815.99-1.03 813.59 0.45 810.29 0.45L810.29 0.45Q805.14 0.45 801.84-2.8 798.54-6.05 798.54-11.93 798.54-17.8 802.11-21.83 805.69-25.85 810.34-25.85L810.34-25.85Q814.04-25.85 816.36-23.3 818.69-20.75 818.69-17.5L818.69-17.5Q818.69-15.15 817.41-14.03 816.14-12.9 813.29-12.8L813.29-12.8 802.89-12.5ZM839.8-2.85L839.8-2.85Q843.55-2.85 845.75-5.6 847.95-8.35 847.95-12.9 847.95-17.45 845.85-19.93 843.75-22.4 840.65-22.4L840.65-22.4Q836.15-22.4 833.95-17.9L833.95-17.9 833.9-8.1Q833.9-2.85 839.8-2.85ZM834-34.55L833.95-22.05Q836.7-25.85 841.28-25.85 845.85-25.85 849.05-22.58 852.25-19.3 852.25-13.23 852.25-7.15 848.6-3.4L848.6-3.4Q844.95 0.4 839.9 0.4 834.85 0.4 832.3-1.83 829.75-4.05 829.75-8.1L829.75-8.1 829.8-34.45Q829.8-35.95 828.55-36.45L828.55-36.45Q829.6-38 831.2-38L831.2-38Q834-38 834-34.55L834-34.55ZM880.24-18.98Q879.42-18.3 878.27-18.3 877.12-18.3 876.32-18.9L876.32-18.9Q876.62-19.4 876.62-20.35 876.62-21.3 875.47-22.2 874.32-23.1 872.02-23.1 869.72-23.1 868.37-22.08 867.02-21.05 867.02-19.65 867.02-18.25 868.52-17.13 870.02-16 872.12-15.08 874.22-14.15 876.34-13.1 878.47-12.05 879.97-10.43 881.47-8.8 881.47-6.8L881.47-6.8Q881.47-3.85 878.67-1.7 875.87 0.45 871.57 0.45 867.27 0.45 864.57-1.2 861.87-2.85 861.87-5.45L861.87-5.45Q861.87-7 862.74-7.88 863.62-8.75 864.84-8.75 866.07-8.75 866.77-7.9L866.77-7.9Q866.07-6.95 866.07-5.6 866.07-4.25 867.44-3.28 868.82-2.3 871.44-2.3 874.07-2.3 875.64-3.43 877.22-4.55 877.22-6.18 877.22-7.8 875.74-9 874.27-10.2 872.17-11.08 870.07-11.95 867.94-12.93 865.82-13.9 864.34-15.4 862.87-16.9 862.87-18.8L862.87-18.8Q862.87-21.8 865.47-23.83 868.07-25.85 871.84-25.85 875.62-25.85 878.32-24.48 881.02-23.1 881.02-20.85L881.02-20.85Q881.07-19.65 880.24-18.98ZM895.96-36.5Q897.23-36.5 898.06-35.77 898.88-35.05 898.88-33.77 898.88-32.5 897.81-31.48 896.73-30.45 895.38-30.45 894.03-30.45 893.18-31.25 892.33-32.05 892.33-33.35 892.33-34.65 893.51-35.58 894.68-36.5 895.96-36.5ZM897.88-22.35L897.88-22.35 897.88-3.1Q897.88-1.65 899.13-1.15L899.13-1.15Q898.08 0.45 896.53 0.45L896.53 0.45Q893.73 0.45 893.73-3.05L893.73-3.05 893.73-22.25Q893.73-23.7 892.48-24.25L892.48-24.25Q893.43-25.85 895.08-25.85L895.08-25.85Q897.88-25.85 897.88-22.35ZM916.8-22.2L916.1-22.2 916.1-6.35Q916.1-4.5 916.82-3.7 917.55-2.9 919.2-2.9L919.2-2.9Q922.3-2.9 925.05-5.55L925.05-5.55Q925.9-5.1 925.9-4.1L925.9-4.1Q925.9-2.4 923.7-0.98 921.5 0.45 918.3 0.45L918.3 0.45Q911.9 0.45 911.9-6.2L911.9-6.2 911.9-22.2Q907.85-22.35 907.85-24.15L907.85-24.15Q907.85-25.1 908.45-25.6L908.45-25.6Q910.2-25.35 911.15-25.35L911.15-25.35 911.9-25.35 911.9-29.4Q911.9-30.8 910.65-31.4L910.65-31.4Q911.65-32.95 913.25-32.95L913.25-32.95Q916.1-32.95 916.1-29.45L916.1-29.45 916.1-25.35 924.5-25.35Q924.7-25 924.7-24.5L924.7-24.5Q924.7-22.2 916.8-22.2L916.8-22.2ZM939.06-14.65L948.41-15.4Q950.46-15.55 950.46-17.78 950.46-20 949.18-21.48 947.91-22.95 945.61-22.95 943.31-22.95 941.41-20.75 939.51-18.55 939.06-14.65L939.06-14.65ZM938.96-12.5Q938.96-7.6 941.08-5.25 943.21-2.9 947.16-2.9 951.11-2.9 953.71-5.5L953.71-5.5Q954.46-5.1 954.46-4.15L954.46-4.15Q954.46-2.5 952.06-1.03 949.66 0.45 946.36 0.45L946.36 0.45Q941.21 0.45 937.91-2.8 934.61-6.05 934.61-11.93 934.61-17.8 938.18-21.83 941.76-25.85 946.41-25.85L946.41-25.85Q950.11-25.85 952.43-23.3 954.76-20.75 954.76-17.5L954.76-17.5Q954.76-15.15 953.48-14.03 952.21-12.9 949.36-12.8L949.36-12.8 938.96-12.5Z" opacity="1" transform="matrix(1,0,0,1,0,0)" fill="#2257bf" class="undefined-text-1" data-fill-palette-color="secondary" id="text-1"></path></svg></g></svg></g></svg></g></svg></g><g transform="matrix(1,0,0,1,85.60352031973017,0)"><svg viewBox="0 0 52.79295936053971 49.23024112813009" height="49.23024112813009" width="52.79295936053971"><g><svg xmlns="http://www.w3.org/2000/svg" xmlns:xlink="http://www.w3.org/1999/xlink" version="1.1" x="0" y="0" viewBox="1.1000003814697266 4.399999618530273 97.80000305175781 91.19999694824219" enable-background="new 0 0 100 100" xml:space="preserve" height="49.23024112813009" width="52.79295936053971" class="icon-icon-0" data-fill-palette-color="accent" id="icon-0"><path d="M35.3 53.2h16v16.3h-16V53.2zM70.2 58.6h16.6V46.8H70.2V58.6zM70.2 66.9h16.6v-4.7H70.2V66.9zM14.2 69.5h16V53.2h-16V69.5zM51.3 82.6H11.8c-5.9 0-10.7-4.8-10.7-10.7V15.3C1.1 9.3 6 4.4 12 4.4h62.5c6 0 10.9 4.9 10.9 10.9v12.8h-7V25H8.2v45.7c0 2.7 2.2 4.9 4.9 4.9h38.2V82.6zM29.8 15c0 1.9 1.5 3.5 3.5 3.5 1.9 0 3.5-1.5 3.5-3.5s-1.5-3.5-3.5-3.5C31.3 11.5 29.8 13.1 29.8 15zM19.7 15c0 1.9 1.5 3.5 3.5 3.5h0c1.7 0 3.1-1.2 3.4-2.8 0-0.2 0.1-0.5 0.1-0.7 0-0.2 0-0.5-0.1-0.7-0.3-1.6-1.7-2.8-3.4-2.8h0C21.2 11.5 19.7 13.1 19.7 15zM9.6 15c0 1.9 1.5 3.5 3.5 3.5 1.9 0 3.5-1.5 3.5-3.5s-1.5-3.5-3.5-3.5C11.1 11.5 9.6 13.1 9.6 15zM51.3 41.8c0-4.1 1.8-7.7 4.6-10.3H14.2V47h37.1V41.8zM98.9 88.6V41.8c0-3.8-3.1-7-7-7H65c-3.8 0-7 3.1-7 7v46.8c0 3.8 3.1 7 7 7h26.9C95.7 95.6 98.9 92.5 98.9 88.6zM91.9 41.6c0.1 0 0.2 0.1 0.2 0.2v46.8c0 0.1-0.1 0.2-0.2 0.2H65c-0.1 0-0.2-0.1-0.2-0.2V41.8c0-0.1 0.1-0.2 0.2-0.2H91.9zM70.2 75.3h16.6v-4.7H70.2V75.3zM70.2 83.6h16.6v-4.7H70.2V83.6z" fill="#2257bf" data-fill-palette-color="accent"></path></svg></g></svg></g><g></g></svg></g></svg></g></svg></g></svg></g><defs></defs></svg><rect width="448" height="360" fill="none" stroke="none" visibility="hidden"></rect></g></svg></g></svg>